# xmcd
#
# Track frame offsets:
#	150
#	10743
#	21384
#	43232
#	55168
#	68718
#	75928
#	102168
#	113342
#	124508
#	142594
#	158902
#	171293
#	183956
#	190654
#
# Disc length: 2753 seconds
#
# Revision: 1
# Processed by: cddbd v1.5.2PL0 Copyright (c) Steve Scherf et al.
# Submitted via: audiograbber 1.83.01
#
DISCID=af0abf0f
DTITLE=Various Artist - Pure Country [CD2)
DYEAR=2010
DGENRE=Country
TTITLE0=Boxcar Willie  - Wabash Cannonball
TTITLE1=Johnny Cash  - Johnny Cash
TTITLE2=Marty Robbins  - El Paso
TTITLE3=Merle Haggard  - Okie From Muskogee
TTITLE4=Stand By Your Man - Stand By Your Man
TTITLE5=Luckenbach Texas - Luckenbach Texas
TTITLE6=Brenda Lee  - Jambalaya
TTITLE7=Tammy Wynette  - DIVORCE
TTITLE8=Conway Twitty  - It's Only Make Believe
TTITLE9=Cindy Morgan - Sweet Dreams
TTITLE10=Billie Jo Spears - Blanket On The Ground
TTITLE11=Patsy Cline  - A Poor Man's Roses
TTITLE12=Johnny Cash  - Ring Of Fire
TTITLE13=Have I Told You Lately That I Love You? - Have I Told You Lately That 
TTITLE13=I Love You
TTITLE14=Always On My Mind - Always On My Mind
EXTD=
EXTT0=
EXTT1=
EXTT2=
EXTT3=
EXTT4=
EXTT5=
EXTT6=
EXTT7=
EXTT8=
EXTT9=
EXTT10=
EXTT11=
EXTT12=
EXTT13=
EXTT14=
PLAYORDER=
